Coordinates
version=1
nRows=19
nColumns=24
inDegrees=yes

Units are S.I. units (second, meters, Newtons, ...)
Angles are in degrees.

endheader
time	pelvis_tilt	pelvis_list	pelvis_rotation	pelvis_tx	pelvis_ty	pelvis_tz	hip_flexion_r	hip_adduction_r	hip_rotation_r	knee_angle_r	ankle_angle_r	subtalar_angle_r	mtp_angle_r	hip_flexion_l	hip_adduction_l	hip_rotation_l	knee_angle_l	ankle_angle_l	subtalar_angle_l	mtp_angle_l	lumbar_extension	lumbar_bending	lumbar_rotation
      3.93500000	     15.49847064	     -2.69730561	      8.53848163	     -0.50030651	      0.92507027	     -0.26541984	    -31.61564169	      7.68010547	     -7.34962294	    -11.21822592	     23.80377368	      8.11164171	      0.00000000	      5.15812638	     -0.19520557	     13.64670505	     -5.28366723	      9.72814783	     -1.27241886	      0.00000000	    -32.86098666	      5.56828237	     -0.33499527
      3.94000000	     15.44008815	     -2.38952374	      8.49704545	     -0.49324830	      0.92481519	     -0.26603430	    -31.58068846	      7.26419523	     -7.49229992	    -12.24789308	     23.62357571	      8.53934250	      0.00000000	      5.03649184	      0.15813986	     13.63561791	     -5.37454772	      9.59099536	     -1.42291202	      0.00000000	    -32.70330279	      5.20237928	     -0.45961796
      3.94500000	     15.41775829	     -2.01586871	      8.46488245	     -0.48612397	      0.92463768	     -0.26673164	    -31.57734255	      6.78173929	     -7.72911771	    -13.31605487	     23.40300082	      9.08068295	      0.00000000	      4.86942968	      0.59002364	     13.63278010	     -5.57163281	      9.49567700	     -1.62524268	      0.00000000	    -32.57905586	      4.78740300	     -0.59560375
      3.95000000	     15.41861737	     -1.59620891	      8.44029574	     -0.47896170	      0.92452268	     -0.26746656	    -31.58200477	      6.25602851	     -8.00534691	    -14.43311698	     23.13318283	      9.63367180	      0.00000000	      4.67062882	      1.07388099	     13.62440395	     -5.85127430	      9.41646583	     -1.82635876	      0.00000000	    -32.48023211	      4.33289601	     -0.77536466
      3.95500000	     15.58311717	     -1.07345478	      8.50238452	     -0.47178429	      0.92457457	     -0.26836298	    -31.78064186	      5.68663535	     -8.44106334	    -15.53633577	     22.77112733	     10.31981782	      0.00000000	      4.28440032	      1.66022436	     13.71636374	     -6.20935773	      9.35404462	     -2.10844226	      0.00000000	    -32.57115243	      3.84930537	     -1.06112603
      3.96000000	     15.52472160	     -0.61295863	      8.43232852	     -0.46453419	      0.92450273	     -0.26906162	    -31.66774094	      5.08675545	     -8.66000805	    -16.77609233	     22.38898694	     10.78965373	      0.00000000	      4.14302345	      2.20064468	     13.60167946	     -6.64265433	      9.31131558	     -2.24419945	      0.00000000	    -32.40815885	      3.31943775	     -1.21378881
      3.96500000	     15.50498399	     -0.12355567	      8.38520698	     -0.45728842	      0.92447925	     -0.26984111	    -31.57349175	      4.46155586	     -8.95608344	    -18.06573772	     21.95813459	     11.32908445	      0.00000000	      3.95921008	      2.77665889	     13.50397351	     -7.13828309	      9.28713756	     -2.41864478	      0.00000000	    -32.29311968	      2.78715041	     -1.39583964
      3.97000000	     15.53167636	      0.39949596	      8.36743361	     -0.45001301	      0.92451118	     -0.27072192	    -31.51446564	      3.81016524	     -9.34379374	    -19.39215695	     21.45395674	     11.90769081	      0.00000000	      3.71196647	      3.39115301	     13.42624715	     -7.66990786	      9.28939898	     -2.63813713	      0.00000000	    -32.23096924	      2.25384211	     -1.59964758
      3.97500000	     15.52905937	      0.93011170	      8.33383246	     -0.44274995	      0.92454803	     -0.27154432	    -31.38667507	      3.14229620	     -9.66964420	    -20.78172405	     20.90300943	     12.39057116	      0.00000000	      3.49818576	      4.01365104	     13.31628523	     -8.24970555	      9.28093052	     -2.79912033	      0.00000000	    -32.14637616	      1.69056891	     -1.81448678
      3.98000000	     15.52451986	      1.46156798	      8.30488210	     -0.43550546	      0.92460555	     -0.27238749	    -31.22398036	      2.46734275	     -9.99416043	    -22.22201167	     20.28892375	     12.86453783	      0.00000000	      3.28372932	      4.63907228	     13.20633726	     -8.85886197	      9.26553931	     -2.95564709	      0.00000000	    -32.07031370	      1.13150507	     -2.02764874
      3.98500000	     15.46867292	      1.98699405	      8.25135266	     -0.42818345	      0.92464252	     -0.27318830	    -30.97729524	      1.77948247	    -10.26174893	    -23.70558243	     19.58895728	     13.20904053	      0.00000000	      3.11350112	      5.25962029	     13.04584437	     -9.48479613	      9.29471469	     -3.04749415	      0.00000000	    -31.92149531	      0.55317685	     -2.22941691
      3.99000000	     15.41952862	      2.50217816	      8.20062591	     -0.42089493	      0.92470212	     -0.27402198	    -30.69918165	      1.08736892	    -10.55881610	    -25.24126712	     18.83351194	     13.56752932	      0.00000000	      2.92917646	      5.86957475	     12.89183780	    -10.11481014	      9.32058617	     -3.15411890	      0.00000000	    -31.78724317	     -0.00243390	     -2.40978205
      3.99500000	     15.37619059	      3.01051181	      8.15717905	     -0.41362435	      0.92476551	     -0.27490425	    -30.39700367	      0.39374736	    -10.86440700	    -26.81263641	     18.03433459	     13.89511265	      0.00000000	      2.73032018	      6.47485024	     12.75686556	    -10.74588553	      9.37322484	     -3.28353673	      0.00000000	    -31.66293505	     -0.54406259	     -2.57817146
      4.00000000	     15.31912734	      3.51082165	      8.10925436	     -0.40634530	      0.92485528	     -0.27572847	    -30.04747995	     -0.29357433	    -11.12790339	    -28.41332352	     17.14534670	     14.10870781	      0.00000000	      2.53165402	      7.06339933	     12.61712548	    -11.36043639	      9.41719278	     -3.35392833	      0.00000000	    -31.52354177	     -1.09048141	     -2.75337673
      4.00500000	     15.25717612	      3.99391107	      8.05557977	     -0.39909503	      0.92494571	     -0.27657221	    -29.65497741	     -0.98044959	    -11.38569656	    -30.04997896	     16.22236400	     14.27338120	      0.00000000	      2.32807838	      7.63417566	     12.48019515	    -11.95879953	      9.48676328	     -3.43216991	      0.00000000	    -31.38245215	     -1.61571201	     -2.90393777
      4.01000000	     15.18637084	      4.45915039	      7.99552537	     -0.39186916	      0.92504105	     -0.27742525	    -29.21645494	     -1.66390192	    -11.62685790	    -31.71536380	     15.26426205	     14.36093062	      0.00000000	      2.12127514	      8.18554969	     12.34602577	    -12.53115238	      9.57337871	     -3.50739340	      0.00000000	    -31.23334425	     -2.12536747	     -3.03788800
      4.01500000	     15.11242395	      4.91003578	      7.93244424	     -0.38465976	      0.92516202	     -0.27823483	    -28.74081864	     -2.33508550	    -11.83527381	    -33.39554098	     14.25672285	     14.34731625	      0.00000000	      1.90090635	      8.71432519	     12.22751558	    -13.06898036	      9.66998734	     -3.55759511	      0.00000000	    -31.08362418	     -2.62232089	     -3.16429426
      4.02000000	     15.03680402	      5.33868774	      7.86488657	     -0.37748431	      0.92529681	     -0.27902479	    -28.22678012	     -2.99202196	    -12.02391023	    -35.09178335	     13.22987711	     14.24424283	      0.00000000	      1.66639418	      9.21484972	     12.11696640	    -13.56548117	      9.78588448	     -3.60092180	      0.00000000	    -30.93535320	     -3.10408901	     -3.27487709
      4.02500000	     14.96007959	      5.74697411	      7.78913403	     -0.37035649	      0.92544757	     -0.27981342	    -27.67517394	     -3.63816776	    -12.18317812	    -36.79713094	     12.20022218	     14.05185381	      0.00000000	      1.42028343	      9.69212047	     12.01729392	    -14.02670027	      9.92831041	     -3.64054621	      0.00000000	    -30.79141164	     -3.55982164	     -3.36579139
